<?xml version="1.0" encoding="UTF-8" standalone="no"?>
<!-- Created with Inkscape (http://www.inkscape.org/) -->

<svg
   xmlns:dc="http://purl.org/dc/elements/1.1/"
   xmlns:cc="http://creativecommons.org/ns#"
   xmlns:rdf="http://www.w3.org/1999/02/22-rdf-syntax-ns#"
   xmlns:svg="http://www.w3.org/2000/svg"
   xmlns="http://www.w3.org/2000/svg"
   xmlns:sodipodi="http://sodipodi.sourceforge.net/DTD/sodipodi-0.dtd"
   xmlns:inkscape="http://www.inkscape.org/namespaces/inkscape"
   width="110"
   height="110.001"
   id="svg2461"
   sodipodi:version="0.32"
   inkscape:version="0.91 r13725"
   version="1.0"
   sodipodi:docname="logo.svg"
   inkscape:output_extension="org.inkscape.output.svg.inkscape"
   inkscape:export-filename="/home/adrian/Descargas/logo.png"
   inkscape:export-xdpi="90"
   inkscape:export-ydpi="90">
  <defs
     id="defs2463">
    <inkscape:perspective
       sodipodi:type="inkscape:persp3d"
       inkscape:vp_x="0 : 526.18109 : 1"
       inkscape:vp_y="0 : 1000 : 0"
       inkscape:vp_z="744.09448 : 526.18109 : 1"
       inkscape:persp3d-origin="372.04724 : 350.78739 : 1"
       id="perspective2469" />
  </defs>
  <sodipodi:namedview
     id="base"
     pagecolor="#ffffff"
     bordercolor="#666666"
     borderopacity="1.0"
     gridtolerance="10000"
     guidetolerance="10"
     objecttolerance="10"
     inkscape:pageopacity="0.0"
     inkscape:pageshadow="2"
     inkscape:zoom="5.1872912"
     inkscape:cx="45.635318"
     inkscape:cy="53.524768"
     inkscape:document-units="px"
     inkscape:current-layer="layer1"
     showgrid="false"
     inkscape:window-width="1855"
     inkscape:window-height="1056"
     inkscape:window-x="65"
     inkscape:window-y="24"
     inkscape:window-maximized="1"
     showguides="true"
     inkscape:guide-bbox="true">
    <sodipodi:guide
       position="9.8317211,128.19793"
       orientation="1,0"
       id="guide4411" />
    <sodipodi:guide
       position="100.05222,134.17408"
       orientation="1,0"
       id="guide4413" />
    <sodipodi:guide
       position="-16.000644,9.6389423"
       orientation="0,1"
       id="guide4187" />
    <sodipodi:guide
       position="54.941971,6.2653125"
       orientation="1,0"
       id="guide4193" />
    <sodipodi:guide
       position="-61.68923,100.05222"
       orientation="0,1"
       id="guide4208" />
    <sodipodi:guide
       position="-24.290135,78.846548"
       orientation="0,1"
       id="guide4212" />
    <sodipodi:guide
       position="32.965183,11.566731"
       orientation="1,0"
       id="guide4214" />
    <sodipodi:guide
       position="77.111538,-12.530625"
       orientation="1,0"
       id="guide4216" />
    <sodipodi:guide
       position="-26.796259,58.990327"
       orientation="0,1"
       id="guide4218" />
  </sodipodi:namedview>
  <metadata
     id="metadata2466">
    <rdf:RDF>
      <cc:Work
         rdf:about="">
        <dc:format>image/svg+xml</dc:format>
        <dc:type
           rdf:resource="http://purl.org/dc/dcmitype/StillImage" />
        <cc:license
           rdf:resource="http://creativecommons.org/licenses/by-sa/3.0/" />
        <dc:creator>
          <cc:Agent>
            <dc:title>eugrafia</dc:title>
          </cc:Agent>
        </dc:creator>
        <dc:title></dc:title>
      </cc:Work>
      <cc:License
         rdf:about="http://creativecommons.org/licenses/by-sa/3.0/">
        <cc:permits
           rdf:resource="http://creativecommons.org/ns#Reproduction" />
        <cc:permits
           rdf:resource="http://creativecommons.org/ns#Distribution" />
        <cc:requires
           rdf:resource="http://creativecommons.org/ns#Notice" />
        <cc:requires
           rdf:resource="http://creativecommons.org/ns#Attribution" />
        <cc:permits
           rdf:resource="http://creativecommons.org/ns#DerivativeWorks" />
        <cc:requires
           rdf:resource="http://creativecommons.org/ns#ShareAlike" />
      </cc:License>
    </rdf:RDF>
  </metadata>
  <g
     transform="translate(-320,-477.36168)"
     id="g3336"
     inkscape:groupmode="layer"
     inkscape:label="Layer 1 copia"
     style="display:inline" />
  <g
     inkscape:groupmode="layer"
     id="layer1"
     inkscape:label="Title"
     style="display:inline"
     transform="translate(0,1.6493164e-6)">
    <flowRoot
       xml:space="preserve"
       id="flowRoot4164"
       style="fill:black;stroke:none;stroke-opacity:1;stroke-width:1px;stroke-linejoin:miter;stroke-linecap:butt;fill-opacity:1;font-family:sans-serif;font-style:normal;font-weight:normal;font-size:40px;line-height:125%;letter-spacing:0px;word-spacing:0px"><flowRegion
         id="flowRegion4166"><rect
           id="rect4168"
           width="126.6557"
           height="53.978077"
           x="-10.988394"
           y="53.902355" /></flowRegion><flowPara
         id="flowPara4170"></flowPara></flowRoot>    <g
       id="g4220"
       transform="matrix(0.89900608,0,0,0.89900608,5.5204704,5.3997117)">
      <g
         transform="matrix(0.97007051,0,0,0.97007051,2.9557473,4.0991438)"
         id="g4199">
        <g
           id="g3338-7-0"
           transform="matrix(0.50989769,-0.00466288,0,0.46523413,-76.47443,12.79903)"
           style="display:inline;fill:#097054;fill-opacity:1;stroke:#092c55;stroke-width:2.43710041;stroke-miterlimit:4;stroke-dasharray:none;stroke-opacity:1">
          <path
             sodipodi:nodetypes="csccccccccccccsccccccccccccsccccccccccccsccccccccccccsssss"
             inkscape:connector-curvature="0"
             d="m 344.149,86.049 c 0.324,-2.171 0.493,-4.394 0.493,-6.656 0,-0.865 -0.026,-1.723 -0.074,-2.575 3.457,-0.439 6.94,-0.7 10.432,-0.779 -0.208,-3.466 -0.735,-6.847 -1.556,-10.112 -3.897,-1.21 -7.868,-2.188 -11.9,-2.916 -1.125,-2.85 -2.537,-5.556 -4.195,-8.084 2.707,-2.22 5.565,-4.23 8.548,-6.042 -1.836,-2.759 -3.914,-5.343 -6.204,-7.722 -3.968,0.945 -7.893,2.092 -11.76,3.399 -2.467,-1.983 -5.151,-3.709 -8.01,-5.138 1.283,-3.257 2.76,-6.425 4.428,-9.484 -2.898,-1.431 -5.939,-2.616 -9.098,-3.523 -2.977,2.788 -5.788,5.743 -8.422,8.841 -2.228,-0.342 -4.511,-0.52 -6.835,-0.52 -0.935,0 -1.86,0.032 -2.781,0.089 -0.497,-3.452 -0.796,-6.934 -0.888,-10.427 -3.37,0.221 -6.657,0.745 -9.833,1.545 -1.178,3.917 -2.145,7.898 -2.919,11.912 -2.933,1.162 -5.713,2.626 -8.304,4.353 -2.141,-2.756 -4.134,-5.629 -5.954,-8.608 -2.831,1.901 -5.474,4.061 -7.9,6.44 0.959,3.963 2.147,7.869 3.525,11.696 -1.832,2.319 -3.438,4.826 -4.787,7.485 -3.24,-1.314 -6.433,-2.745 -9.529,-4.336 -1.49,2.997 -2.719,6.148 -3.649,9.423 2.777,3.044 5.729,5.927 8.84,8.615 -0.307,2.112 -0.468,4.271 -0.468,6.469 0,0.924 0.031,1.841 0.087,2.752 -3.458,0.449 -6.944,0.681 -10.436,0.715 0.217,3.504 0.759,6.921 1.601,10.218 3.903,1.222 7.881,2.204 11.935,2.907 1.121,2.799 2.518,5.458 4.155,7.944 -2.745,2.132 -5.616,4.136 -8.592,5.976 1.843,2.767 3.93,5.358 6.229,7.743 3.928,-0.964 7.816,-2.14 11.646,-3.493 2.442,1.972 5.095,3.691 7.921,5.12 -1.35,3.229 -2.867,6.375 -4.547,9.424 2.991,1.499 6.136,2.735 9.407,3.675 3.02,-2.793 5.894,-5.742 8.612,-8.817 2.163,0.322 4.376,0.491 6.628,0.491 0.892,0 1.776,-0.029 2.654,-0.081 0.45,3.463 0.719,6.95 0.79,10.433 3.429,-0.211 6.774,-0.735 10.007,-1.547 1.235,-3.914 2.235,-7.897 2.981,-11.927 2.896,-1.147 5.644,-2.591 8.205,-4.29 2.17,2.738 4.178,5.602 6.007,8.571 2.678,-1.794 5.187,-3.815 7.503,-6.038 -0.938,-3.954 -2.082,-7.865 -3.414,-11.719 2.042,-2.526 3.814,-5.28 5.273,-8.216 3.235,1.277 6.396,2.783 9.455,4.485 1.45,-2.943 2.646,-6.033 3.559,-9.244 -2.795,-2.981 -5.759,-5.793 -8.866,-8.427 z m -44.153,24.284 c -17.058,0 -30.936,-13.879 -30.936,-30.939 0,-17.061 13.878,-30.942 30.936,-30.942 17.059,0 30.937,13.881 30.937,30.942 0,17.06 -13.878,30.939 -30.937,30.939 z"
             id="path3340-3-4"
             style="fill:#097054;fill-opacity:1;stroke:#092c55;stroke-width:2.43710041;stroke-miterlimit:4;stroke-dasharray:none;stroke-opacity:1" />
        </g>
        <g
           id="g3338-7-0-1"
           transform="matrix(0.50989769,-0.00466288,0,0.46523413,-122.12382,-7.66323)"
           style="display:inline;fill:#ea9900;fill-opacity:1;stroke:#092c55;stroke-width:2.43710041;stroke-miterlimit:4;stroke-dasharray:none;stroke-opacity:1">
          <path
             sodipodi:nodetypes="csccccccccccccsccccccccccccsccccccccccccsccccccccccccsssss"
             inkscape:connector-curvature="0"
             d="m 344.149,86.049 c 0.324,-2.171 0.493,-4.394 0.493,-6.656 0,-0.865 -0.026,-1.723 -0.074,-2.575 3.457,-0.439 6.94,-0.7 10.432,-0.779 -0.208,-3.466 -0.735,-6.847 -1.556,-10.112 -3.897,-1.21 -7.868,-2.188 -11.9,-2.916 -1.125,-2.85 -2.537,-5.556 -4.195,-8.084 2.707,-2.22 5.565,-4.23 8.548,-6.042 -1.836,-2.759 -3.914,-5.343 -6.204,-7.722 -3.968,0.945 -7.893,2.092 -11.76,3.399 -2.467,-1.983 -5.151,-3.709 -8.01,-5.138 1.283,-3.257 2.76,-6.425 4.428,-9.484 -2.898,-1.431 -5.939,-2.616 -9.098,-3.523 -2.977,2.788 -5.788,5.743 -8.422,8.841 -2.228,-0.342 -4.511,-0.52 -6.835,-0.52 -0.935,0 -1.86,0.032 -2.781,0.089 -0.497,-3.452 -0.796,-6.934 -0.888,-10.427 -3.37,0.221 -6.657,0.745 -9.833,1.545 -1.178,3.917 -2.145,7.898 -2.919,11.912 -2.933,1.162 -5.713,2.626 -8.304,4.353 -2.141,-2.756 -4.134,-5.629 -5.954,-8.608 -2.831,1.901 -5.474,4.061 -7.9,6.44 0.959,3.963 2.147,7.869 3.525,11.696 -1.832,2.319 -3.438,4.826 -4.787,7.485 -3.24,-1.314 -6.433,-2.745 -9.529,-4.336 -1.49,2.997 -2.719,6.148 -3.649,9.423 2.777,3.044 5.729,5.927 8.84,8.615 -0.307,2.112 -0.468,4.271 -0.468,6.469 0,0.924 0.031,1.841 0.087,2.752 -3.458,0.449 -6.944,0.681 -10.436,0.715 0.217,3.504 0.759,6.921 1.601,10.218 3.903,1.222 7.881,2.204 11.935,2.907 1.121,2.799 2.518,5.458 4.155,7.944 -2.745,2.132 -5.616,4.136 -8.592,5.976 1.843,2.767 3.93,5.358 6.229,7.743 3.928,-0.964 7.816,-2.14 11.646,-3.493 2.442,1.972 5.095,3.691 7.921,5.12 -1.35,3.229 -2.867,6.375 -4.547,9.424 2.991,1.499 6.136,2.735 9.407,3.675 3.02,-2.793 5.894,-5.742 8.612,-8.817 2.163,0.322 4.376,0.491 6.628,0.491 0.892,0 1.776,-0.029 2.654,-0.081 0.45,3.463 0.719,6.95 0.79,10.433 3.429,-0.211 6.774,-0.735 10.007,-1.547 1.235,-3.914 2.235,-7.897 2.981,-11.927 2.896,-1.147 5.644,-2.591 8.205,-4.29 2.17,2.738 4.178,5.602 6.007,8.571 2.678,-1.794 5.187,-3.815 7.503,-6.038 -0.938,-3.954 -2.082,-7.865 -3.414,-11.719 2.042,-2.526 3.814,-5.28 5.273,-8.216 3.235,1.277 6.396,2.783 9.455,4.485 1.45,-2.943 2.646,-6.033 3.559,-9.244 -2.795,-2.981 -5.759,-5.793 -8.866,-8.427 z m -44.153,24.284 c -17.058,0 -30.936,-13.879 -30.936,-30.939 0,-17.061 13.878,-30.942 30.936,-30.942 17.059,0 30.937,13.881 30.937,30.942 0,17.06 -13.878,30.939 -30.937,30.939 z"
             id="path3340-3-4-8"
             style="fill:#ea9900;fill-opacity:1;stroke:#092c55;stroke-width:2.43710041;stroke-miterlimit:4;stroke-dasharray:none;stroke-opacity:1" />
        </g>
        <g
           id="g3338-7-0-0"
           transform="matrix(-0.27426122,-0.00250804,0,0.2502378,113.09697,8.9811551)"
           style="display:inline;fill:#242930;fill-opacity:1">
          <path
             sodipodi:nodetypes="csccccccccccccsccccccccccccsccccccccccccsccccccccccccsssss"
             inkscape:connector-curvature="0"
             d="m 173.92405,164.90471 c 0.29608,-1.9839 0.45051,-4.01534 0.45051,-6.08239 0,-0.79047 -0.0238,-1.57452 -0.0676,-2.35309 3.15908,-0.40118 6.34192,-0.63968 9.53298,-0.71188 -0.19007,-3.1673 -0.67166,-6.25692 -1.4219,-9.24056 -3.56117,-1.10571 -7.18995,-1.99944 -10.87448,-2.66469 -1.02805,-2.60439 -2.31836,-5.07719 -3.83348,-7.38733 2.47372,-2.02869 5.08542,-3.86547 7.81135,-5.52131 -1.67778,-2.52123 -3.5767,-4.88255 -5.66935,-7.05653 -3.62604,0.86356 -7.21279,1.91172 -10.74654,3.10608 -2.2544,-1.81211 -4.70709,-3.38936 -7.31971,-4.69521 1.17244,-2.97632 2.52215,-5.8713 4.0464,-8.66668 -2.64825,-1.30768 -5.42718,-2.39056 -8.31395,-3.2194 -2.72044,2.54774 -5.28919,5.24808 -7.69619,8.0791 -2.036,-0.31254 -4.12225,-0.47519 -6.24597,-0.47519 -0.85443,1e-5 -1.69971,0.0292 -2.54134,0.0813 -0.45417,-3.15451 -0.72741,-6.33644 -0.81147,-9.52841 -3.07958,0.20195 -6.08331,0.68079 -8.98561,1.41185 -1.07648,3.57943 -1.96014,7.21735 -2.66744,10.88543 -2.68024,1.06186 -5.22066,2.39969 -7.58837,3.97786 -1.95649,-2.51849 -3.77774,-5.1439 -5.44089,-7.86617 -2.58703,1.73717 -5.00226,3.71103 -7.21919,5.88501 0.87635,3.62147 1.96197,7.19086 3.22122,10.68805 -1.674119,2.11915 -3.14172,4.4101 -4.37447,6.83995 -2.960784,-1.20076 -5.878615,-2.50843 -8.707805,-3.96232 -1.361585,2.73872 -2.484671,5.61817 -3.334534,8.61093 2.537691,2.78168 5.235291,5.41622 8.078189,7.87257 -0.280562,1.92999 -0.427669,3.90293 -0.427669,5.91151 0,0.84437 0.02833,1.68235 0.0795,2.51484 -3.159994,0.4103 -6.345575,0.62231 -9.536639,0.65338 0.19829,3.20203 0.693591,6.32456 1.463028,9.33743 3.566645,1.11669 7.201825,2.01406 10.906457,2.65648 1.024393,2.55778 2.301003,4.98763 3.796934,7.25939 -2.508441,1.94827 -5.132027,3.77957 -7.851559,5.461 1.684172,2.52854 3.591317,4.89625 5.692198,7.07571 3.58949,-0.88092 7.14242,-1.95557 10.64236,-3.19197 2.23155,1.80205 4.65592,3.37291 7.23838,4.67876 -1.23366,2.95073 -2.61993,5.82561 -4.15515,8.61185 2.73324,1.36982 5.60721,2.4993 8.59632,3.3583 2.75974,-2.55231 5.38606,-5.24717 7.86983,-8.05717 1.97659,0.29426 3.99888,0.44869 6.0568,0.44869 0.81513,6e-5 1.62295,-0.0265 2.42529,-0.074 0.41121,3.16456 0.65703,6.35106 0.72191,9.5339 3.1335,-0.1928 6.19023,-0.67166 9.14461,-1.41368 1.12858,-3.5767 2.0424,-7.21645 2.72411,-10.89915 2.64643,-1.04816 5.15761,-2.36771 7.49791,-3.9203 1.98299,2.50204 3.81794,5.11923 5.48932,7.83237 2.44721,-1.6394 4.73999,-3.48624 6.8564,-5.51766 -0.85716,-3.61325 -1.90257,-7.18721 -3.11978,-10.70907 1.86602,-2.30832 3.48531,-4.82497 4.81858,-7.50796 2.95621,1.16696 5.8448,2.54317 8.64018,4.09849 1.32504,-2.68938 2.41797,-5.51307 3.25229,-8.44736 -2.55414,-2.7241 -5.2627,-5.29376 -8.10194,-7.70077 z m -40.34795,22.19123 c -15.58797,-1e-5 -28.26998,-12.68293 -28.26998,-28.27272 0,-15.5907 12.68201,-28.27545 28.26998,-28.27545 15.58887,10e-6 28.27089,12.68476 28.27089,28.27546 0,15.58979 -12.68202,28.27272 -28.27089,28.27271 z"
             id="path3340-3-4-5-2"
             style="display:inline;fill:#ea9900;fill-opacity:1;stroke:#463f3c;stroke-width:0.91382122;stroke-opacity:1" />
          <path
             sodipodi:nodetypes="csccccccccccccsccccccccccccsccccccccccccsccccccccccccsssss"
             inkscape:connector-curvature="0"
             d="m 339.87047,84.789825 c 0.29608,-1.983899 0.45051,-4.015341 0.45051,-6.082391 0,-0.790468 -0.0238,-1.574517 -0.0676,-2.353088 3.15908,-0.401182 6.34192,-0.63968 9.53298,-0.711883 -0.19007,-3.167298 -0.67166,-6.256918 -1.4219,-9.240558 -3.56117,-1.10571 -7.18995,-1.99944 -10.87448,-2.66469 -1.02805,-2.60439 -2.31836,-5.07719 -3.83348,-7.38733 2.47372,-2.02869 5.08542,-3.86547 7.81135,-5.52131 -1.67778,-2.52123 -3.5767,-4.88255 -5.66935,-7.05653 -3.62604,0.86356 -7.21279,1.91172 -10.74654,3.10608 -2.2544,-1.81211 -4.70709,-3.38936 -7.31971,-4.69521 1.17244,-2.97632 2.52215,-5.8713 4.0464,-8.66668 -2.64825,-1.30768 -5.42718,-2.39056 -8.31395,-3.2194 -2.72044,2.54774 -5.28919,5.24808 -7.69619,8.0791 -2.036,-0.31254 -4.12225,-0.47519 -6.24597,-0.47519 -0.85443,2.8e-5 -1.69971,0.0292 -2.54134,0.0813 -0.45417,-3.154511 -0.72741,-6.33644 -0.81147,-9.52841 -3.07958,0.201949 -6.08331,0.68079 -8.98561,1.41185 -1.07648,3.57943 -1.96014,7.217349 -2.66744,10.88543 -2.68024,1.06186 -5.22066,2.39969 -7.58837,3.97786 -1.95649,-2.51849 -3.77774,-5.1439 -5.44089,-7.86617 -2.58703,1.73717 -5.00226,3.71103 -7.21919,5.88501 0.87635,3.62147 1.96197,7.19086 3.22122,10.68805 -1.67412,2.11915 -3.14172,4.4101 -4.37447,6.83995 -2.96078,-1.20076 -5.87862,-2.50843 -8.70781,-3.96232 -1.36158,2.73872 -2.48467,5.61817 -3.33453,8.61093 2.53769,2.781679 5.23529,5.416219 8.07819,7.872571 -0.28057,1.92999 -0.42767,3.902929 -0.42767,5.911511 0,0.844368 0.0284,1.682349 0.0795,2.514837 -3.15999,0.4103 -6.34557,0.622312 -9.53663,0.653381 0.19827,3.202032 0.69359,6.324559 1.46302,9.337428 3.56665,1.116691 7.20183,2.014062 10.90646,2.65648 1.02439,2.557781 2.301,4.987631 3.79693,7.259397 -2.50843,1.94827 -5.13202,3.77957 -7.85155,5.461 1.68417,2.52854 3.59131,4.89625 5.6922,7.07571 3.58948,-0.88092 7.14241,-1.95557 10.64235,-3.19197 2.23155,1.80205 4.65592,3.37291 7.23838,4.67876 -1.23366,2.95073 -2.61993,5.82561 -4.15515,8.61185 2.73324,1.36982 5.60721,2.4993 8.59632,3.3583 2.75974,-2.55231 5.38606,-5.24717 7.86983,-8.05717 1.97659,0.29427 3.99888,0.44869 6.0568,0.4487 0.81513,1.7e-4 1.62295,-0.0265 2.42529,-0.074 0.41121,3.16456 0.65703,6.35106 0.72191,9.5339 3.1335,-0.19282 6.19023,-0.67166 9.14461,-1.41368 1.1286,-3.57671 2.04242,-7.21646 2.72413,-10.89916 2.64643,-1.04816 5.15761,-2.36771 7.49791,-3.9203 1.98299,2.50204 3.81794,5.11923 5.48932,7.83237 2.44721,-1.6394 4.73999,-3.48624 6.8564,-5.51766 -0.85716,-3.61325 -1.90257,-7.18721 -3.11978,-10.70907 1.86602,-2.30832 3.48531,-4.824973 4.81858,-7.507966 2.95621,1.16696 5.8448,2.543173 8.64018,4.098496 1.32504,-2.689386 2.41797,-5.513076 3.25229,-8.447365 -2.55414,-2.7241 -5.2627,-5.293761 -8.10194,-7.700771 z m -40.34795,22.191235 c -15.58797,-2e-5 -28.26998,-12.682934 -28.26998,-28.272725 0,-15.5907 12.68201,-28.27545 28.26998,-28.27545 15.58887,1e-5 28.27089,12.68476 28.27089,28.275461 0,15.589787 -12.68202,28.272724 -28.27089,28.272714 z"
             id="path3340-3-4-5-2-9"
             style="display:inline;fill:#097054;fill-opacity:1;stroke:#463f3c;stroke-width:0.91382122;stroke-opacity:1" />
        </g>
      </g>
      <g
         transform="matrix(1.0152917,0,0,1.1011762,-2.9962462,-7.8405331)"
         id="g4189">
        <path
           style="font-style:normal;font-variant:normal;font-weight:600;font-stretch:normal;font-size:34.77626801px;line-height:125%;font-family:'Latin Modern Sans Demi Cond';-inkscape-font-specification:'Latin Modern Sans Demi Cond, Semi-Bold';text-align:start;letter-spacing:0px;word-spacing:0px;writing-mode:lr-tb;text-anchor:start;display:inline;fill:#2f60a6;fill-opacity:0.99710981;stroke:#092c55;stroke-width:1.00199997;stroke-linecap:butt;stroke-linejoin:miter;stroke-miterlimit:4;stroke-dasharray:none;stroke-opacity:1"
           d="m 20.962486,79.687873 c -3.421878,0 -6.803372,0.875189 -9.058702,2.93531 -2.4497546,2.21619 -3.189463,5.24299 -3.189463,8.20832 0,2.965324 0.7397084,5.994083 3.189463,8.210273 2.25533,2.060124 5.636824,2.933364 9.058702,2.933364 2.64418,0 5.249151,-0.53036 7.543365,-1.56042 0.15554,-0.0624 0.23328,-0.18762 0.23328,-0.31248 l 0,-8.677035 c 0,-0.187284 -0.194043,-0.343723 -0.427353,-0.343723 l -6.921939,0 c -0.23331,0 -0.427353,0.156439 -0.427353,0.343723 l 0,1.841647 c 0,0.187284 0.194161,0.336316 0.427353,0.343723 l 3.034598,0 0,5.337461 c -1.127665,0.21849 -2.2954,0.34177 -3.461951,0.34177 -2.177559,0 -4.237094,-0.747545 -5.520299,-2.152174 -1.633157,-1.810409 -1.983858,-4.089939 -1.983858,-6.306129 0,-2.247405 0.350701,-4.526935 1.983858,-6.30613 1.283205,-1.404629 3.34274,-2.15217 5.520299,-2.15217 1.166551,0 2.294436,0.123371 3.344331,0.435511 1.088779,0.343353 2.0223,0.8756 2.877769,1.499879 0.07777,0.03122 0.155831,0.09374 0.272486,0.09374 0.233311,0 0.388468,-0.12519 0.427355,-0.312475 l 0.544971,-2.466597 c 0,-0.218498 -0.07741,-0.312541 -0.194072,-0.37497 -1.127664,-0.499422 -2.256837,-0.935772 -3.501157,-1.216697 -1.205434,-0.249713 -2.488477,-0.343723 -3.771683,-0.343721 z m 34.658411,0.505254 c -1.360976,0 -1.748619,0.280481 -1.748619,1.404182 l 0,18.853951 c 0,1.09249 0.348759,1.40419 1.748619,1.40419 l 1.284019,0 c 1.360974,0 1.711371,-0.31167 1.711371,-1.37295 l 0,-7.304097 5.365433,0 c 3.732958,0 8.28241,-1.405673 8.28241,-6.431119 0,-3.932958 -2.837485,-6.554157 -8.63135,-6.554157 z m 23.620061,0 c -1.360976,0 -1.748618,0.280481 -1.748618,1.404182 l 0,18.853951 c 0,1.09249 0.348758,1.40419 1.748618,1.40419 l 1.284019,0 c 1.360975,0 1.711371,-0.31167 1.711371,-1.37295 l 0,-7.304097 5.365434,0 c 3.732958,0 8.282408,-1.405673 8.282408,-6.431119 0,-3.932958 -2.839445,-6.554157 -8.633308,-6.554157 z m 23.580862,0 c -1.36098,0 -1.75059,0.280481 -1.75059,1.404182 l 0,18.853951 c 0,1.09249 0.35072,1.40419 1.75059,1.40419 l 1.28401,0 c 1.36097,0 1.70941,-0.31167 1.70941,-1.37295 l 0,-18.916437 c 0,-0.967633 -0.23178,-1.372936 -1.70941,-1.372936 z m -44.323154,2.341607 3.967716,0 c 4.899509,0 5.365434,2.152463 5.365434,4.243798 0,1.997692 -0.388154,4.24575 -5.365434,4.24575 l -3.967716,0 z m 23.620061,0 3.965755,0 c 4.899511,0 5.367395,2.152463 5.367395,4.243798 0,1.997692 -0.390115,4.24575 -5.367395,4.24575 l -3.965755,0 z"
           id="text3369"
           inkscape:connector-curvature="0"
           sodipodi:nodetypes="scscscsssssssccscscsccsccccssssssscsssssssssscssssssssssssscssscccssscc" />
        <path
           style="font-style:normal;font-variant:normal;font-weight:600;font-stretch:normal;font-size:34.77626801px;line-height:125%;font-family:'Latin Modern Sans Demi Cond';-inkscape-font-specification:'Latin Modern Sans Demi Cond, Semi-Bold';text-align:start;letter-spacing:0px;word-spacing:0px;writing-mode:lr-tb;text-anchor:start;display:inline;fill:#2f60a6;fill-opacity:0.99710981;stroke:#092c55;stroke-width:1.11044037;stroke-linecap:butt;stroke-linejoin:miter;stroke-miterlimit:4;stroke-dasharray:none;stroke-opacity:1"
           d="m 35.667721,85.094186 c -1.046425,0 -1.344476,0.215649 -1.344476,1.079642 l 0,6.571968 0,7.924454 c 0,0.84 0.268153,1.07965 1.344476,1.07965 l 0.89682,0 c 1.046425,0 1.31584,-0.23963 1.31584,-1.05563 l 0,-6.504924 3.13962,0 4.425318,6.983934 c 0.328876,0.504 0.418655,0.57662 1.285693,0.57662 l 1.255548,0 c 0.388673,0 1.046039,-5.8e-4 1.046039,-0.52857 0,-0.096 -0.02987,-0.11888 -0.179364,-0.35887 l -4.4841,-6.887843 c 2.003157,-0.456001 4.27459,-1.53601 4.27459,-4.223996 0,-2.639967 -2.181885,-4.656435 -7.025339,-4.656435 z m 2.21266,1.800409 3.318985,0 c 3.498051,0 4.036444,1.344076 4.036444,2.880064 0,1.48799 -0.508741,2.880052 -4.06659,2.880052 l -3.288839,0 z"
           id="text3369-1"
           inkscape:connector-curvature="0"
           sodipodi:nodetypes="scsssscccsssccsssscssccc" />
      </g>
    </g>
  </g>
</svg>
